<svg viewBox="0 0 24 24" fill="none" xmlns="http://www.w3.org/2000/svg">
  <svg x="2.5008" y="2.5008" width="18.9984" height="18.9984" viewBox="0 0 19 19" fill="none">
    <path id="Union" d="M12.5 0C12.7761 0 13 0.223858 13 0.5V2.02832C15.0857 2.25893 16.7411 3.91427 16.9717 6H18.5C18.7761 6 19 6.22386 19 6.5C19 6.77614 18.7761 7 18.5 7H17V12H18.5C18.7761 12 19 12.2239 19 12.5C19 12.7761 18.7761 13 18.5 13H16.9717C16.7411 15.0857 15.0857 16.74 13 16.9707V18.5C13 18.7761 12.7761 19 12.5 19C12.2239 19 12 18.7761 12 18.5V17H7V18.5C7 18.7761 6.77614 19 6.5 19C6.22386 19 6 18.7761 6 18.5V16.9717C3.91427 16.7411 2.25893 15.0857 2.02832 13H0.5C0.223858 13 4.69884e-08 12.7761 0 12.5C1.20706e-08 12.2239 0.223858 12 0.5 12H2V7H0.5C0.223858 7 4.69884e-08 6.77614 0 6.5C1.20706e-08 6.22386 0.223858 6 0.5 6H2.02832C2.25893 3.91427 3.91427 2.25893 6 2.02832V0.5C6 0.223858 6.22386 0 6.5 0C6.77614 0 7 0.223858 7 0.5V2H12V0.5C12 0.223858 12.2239 0 12.5 0ZM6.5 3C4.567 3 3 4.567 3 6.5V12.5L3.00488 12.6797C3.09842 14.5292 4.62727 16 6.5 16H12.5C14.433 16 16 14.433 16 12.5V6.5C16 4.62727 14.5292 3.09842 12.6797 3.00488L12.5 3H6.5Z" fill="var(--fill-0, #424242)"/>
  </svg>
</svg>
