<svg viewBox="0 0 24 24" fill="none" xmlns="http://www.w3.org/2000/svg">
  <svg x="1.6368" y="3.9360" width="18.7272" height="16.2144" viewBox="0 0 18.7277 16.2143" fill="none">
    <path id="Union" d="M14.3707 12.4565L12.6129 14.2143H15.2135C15.7658 14.2143 16.2135 14.662 16.2135 15.2143C16.2133 15.7664 15.7657 16.2143 15.2135 16.2143H10.1998C10.1943 16.2143 10.1887 16.2134 10.1832 16.2133H3.51426L3.41465 16.2084C3.18603 16.1855 2.97015 16.0843 2.80625 15.9203L0.878514 13.9926C-0.292728 12.821 -0.292948 10.9209 0.878514 9.74945L6.27207 4.35687L14.3707 12.4565ZM9.74961 0.878358C10.9211 -0.292792 12.8213 -0.29278 13.9928 0.878358L17.8492 4.7348C18.984 5.86961 19.0192 7.68799 17.9557 8.86566L17.8492 8.97797L15.7857 11.0414L7.68613 2.94281L9.74961 0.878358Z" fill="var(--fill-0, #424242)"/>
  </svg>
</svg>
