<svg viewBox="0 0 24 24" fill="none" xmlns="http://www.w3.org/2000/svg">
  <svg x="3.2496" y="3.2496" width="17.5008" height="17.5008" viewBox="0 0 17.5 17.5" fill="none">
    <path id="Union" d="M12.75 0C15.3734 0 17.5 2.12665 17.5 4.75V12.75C17.5 15.3734 15.3734 17.5 12.75 17.5H4.75C2.12665 17.5 0 15.3734 0 12.75V4.75C0 2.12665 2.12665 0 4.75 0H12.75ZM4.75 1.5C2.95507 1.5 1.5 2.95507 1.5 4.75V12.75C1.5 14.5449 2.95507 16 4.75 16H12.75C14.5449 16 16 14.5449 16 12.75V4.75C16 2.95507 14.5449 1.5 12.75 1.5H4.75ZM4.75 11C5.7165 11 6.5 11.7835 6.5 12.75C6.5 13.7165 5.7165 14.5 4.75 14.5C3.7835 14.5 3 13.7165 3 12.75C3 11.7835 3.7835 11 4.75 11ZM12.75 11C13.7165 11 14.5 11.7835 14.5 12.75C14.5 13.7165 13.7165 14.5 12.75 14.5C11.7835 14.5 11 13.7165 11 12.75C11 11.7835 11.7835 11 12.75 11ZM4.75 12.5C4.61193 12.5 4.5 12.6119 4.5 12.75C4.5 12.8881 4.61193 13 4.75 13C4.88807 13 5 12.8881 5 12.75C5 12.6119 4.88807 12.5 4.75 12.5ZM12.75 12.5C12.6119 12.5 12.5 12.6119 12.5 12.75C12.5 12.8881 12.6119 13 12.75 13C12.8881 13 13 12.8881 13 12.75C13 12.6119 12.8881 12.5 12.75 12.5ZM8.75 7C9.7165 7 10.5 7.7835 10.5 8.75C10.5 9.7165 9.7165 10.5 8.75 10.5C7.7835 10.5 7 9.7165 7 8.75C7 7.7835 7.7835 7 8.75 7ZM8.75 8.5C8.61193 8.5 8.5 8.61193 8.5 8.75C8.5 8.88807 8.61193 9 8.75 9C8.88807 9 9 8.88807 9 8.75C9 8.61193 8.88807 8.5 8.75 8.5ZM4.75 3C5.7165 3 6.5 3.7835 6.5 4.75C6.5 5.7165 5.7165 6.5 4.75 6.5C3.7835 6.5 3 5.7165 3 4.75C3 3.7835 3.7835 3 4.75 3ZM12.75 3C13.7165 3 14.5 3.7835 14.5 4.75C14.5 5.7165 13.7165 6.5 12.75 6.5C11.7835 6.5 11 5.7165 11 4.75C11 3.7835 11.7835 3 12.75 3ZM4.75 4.5C4.61193 4.5 4.5 4.61193 4.5 4.75C4.5 4.88807 4.61193 5 4.75 5C4.88807 5 5 4.88807 5 4.75C5 4.61193 4.88807 4.5 4.75 4.5ZM12.75 4.5C12.6119 4.5 12.5 4.61193 12.5 4.75C12.5 4.88807 12.6119 5 12.75 5C12.8881 5 13 4.88807 13 4.75C13 4.61193 12.8881 4.5 12.75 4.5Z" fill="var(--fill-0, #424242)"/>
  </svg>
</svg>
